<?xml version="1.0" encoding="utf-8"?>
<!-- Generator: Adobe Illustrator 23.1.0, SVG Export Plug-In . SVG Version: 6.00 Build 0)  -->
<svg version="1.1" id="Calque_1" xmlns="http://www.w3.org/2000/svg" xmlns:xlink="http://www.w3.org/1999/xlink" x="0px" y="0px"
	 viewBox="0 0 1200 1200" style="enable-background:new 0 0 1200 1200;" xml:space="preserve">
<style type="text/css">
	.st0{fill:#46A724;}
</style>
<path class="st0" d="M161.3,512.94c1.91-15.3,4.31-31.1,7.18-47.39c13.4-54.57,38.53-106.02,75.39-154.37
	c36.84-48.33,79.7-88.31,128.52-119.91c48.82-31.59,101.46-58.16,157.96-79.7c56.47-21.54,112.48-33.75,168.01-36.62
	c55.51-2.87,106.98,0.72,154.37,10.77c47.39,10.05,87.6,30.65,120.63,61.75c33.03,31.12,54.32,70.61,63.9,118.47
	c6.69,38.3,5.74,87.84-2.87,148.63c-8.62,60.81-23.22,120.87-43.8,180.22c-20.6,59.37-48.6,112.97-84.01,160.83
	c-35.43,47.88-73.24,77.55-113.45,89.03c-16.29,4.8-34.46,7.43-54.57,7.9c-20.11,0.49-41.65-1.66-64.62-6.46
	c-22.98-4.78-44.05-15.55-63.19-32.31c-19.16-16.74-32.56-38.53-40.21-65.34c-25.85,128.3-49.32,243.18-70.36,344.65
	c-1.93,11.49-16.76,20.35-44.52,26.57c-27.78,6.24-58.41,8.37-91.9,6.46c-19.16-0.94-34.24-2.38-45.24-4.31
	c-11.02-1.91-20.6-6.68-28.72-14.36c-8.14-7.65-10.77-18.67-7.9-33.03c12.43-63.19,35.9-178.07,70.37-344.65l97.65-472.45
	l-4.31,2.87c-5.74,2.87-11.49,6.71-17.23,11.49c-8.62,6.71-17.23,14.36-25.85,22.98c-22.98,21.07-44.52,47.88-64.62,80.42
	c-11.49,20.1-21.54,42.86-30.16,68.21c-8.62,25.38-12.92,52.66-12.92,81.85c0,29.22,7.18,52.91,21.54,71.08
	c2.87,3.84,6.46,7.9,10.77,12.21c4.31,4.31,8.84,8.86,13.64,13.64c0,0.96-1.44,3.37-4.31,7.18c-0.97,1.93-1.93,4.31-2.87,7.18
	c-12.45,24.91-25.85,45.48-40.21,61.75c-19.16,19.16-40.21,25.13-63.18,17.95c-22.98-7.18-40.21-23.2-51.7-48.11
	c-13.42-31.59-20.1-67.96-20.1-109.14C158.43,543.59,159.37,528.27,161.3,512.94z M676.84,234.36
	c-4.8,23.94-10.77,53.85-17.95,89.75c-7.18,35.9-13.64,68.21-19.39,96.93c-5.74,28.72-11.98,57.44-18.67,86.16
	c-7.67,38.3-11.26,73.49-10.77,105.55c0.47,32.09,5.74,57.69,15.8,76.83c10.05,19.16,23.2,26.34,39.49,21.54
	c48.83-14.36,91.91-64.62,129.24-150.78c39.24-90.94,53.13-172.32,41.64-244.12c-11.49-72.74-49.32-103.86-113.44-93.34
	c-12.45,1.93-25.85,5.74-40.21,11.49C681.62,234.36,679.71,234.36,676.84,234.36z"/>
</svg>
