<?xml version="1.0" encoding="utf-8"?>
<!-- Generator: Adobe Illustrator 23.1.0, SVG Export Plug-In . SVG Version: 6.00 Build 0)  -->
<svg version="1.1" id="Calque_1" xmlns="http://www.w3.org/2000/svg" xmlns:xlink="http://www.w3.org/1999/xlink" x="0px" y="0px"
	 viewBox="0 0 1214.7 600" style="enable-background:new 0 0 1214.7 600;" xml:space="preserve">
<g>
	<path d="M73.4,81.8c0.4,0.2-1.2-0.9,17-7.8s36.3-10.9,54.2-11.8c17.9-0.9,34.5,0.2,49.8,3.5c15.3,3.2,28.3,9.9,39,19.9
		c10.7,10,17.5,22.8,20.6,38.2c2.1,12.4,1.9,28.4-0.9,48c-2.8,19.6-7.5,39-14.1,58.1s-15.7,36.4-27.2,51.9
		c-11.5,15.5-23.6,25.1-36.6,28.7c-5.2,1.6-11.1,2.4-17.6,2.6c-6.5,0.1-13.5-0.6-20.8-2.1c-7.5-1.6-14.3-5-20.4-10.5
		c-6.2-5.5-10.5-12.5-13-21C95,320.9,87.5,358,80.7,390.7c-0.7,3.7-5.5,6.6-14.4,8.6c-9,2-18.8,2.7-29.6,2.1
		c-6.2-0.3-11-0.8-14.6-1.3c-3.6-0.7-6.7-2.1-9.2-4.7c-2.7-2.4-3.5-6-2.6-10.7c4-20.4,11.6-57.5,22.7-111.3L64.5,121l1-3.9
		 M137.7,113.6c-1.6,7.7-3.5,17.4-5.8,29c-2.3,11.6-4.5,22-6.2,31.3c-1.9,9.2-3.9,18.5-6,27.8c-2.4,12.4-3.7,23.7-3.5,34.1
		c0.1,10.4,1.9,18.6,5.1,24.8c3.2,6.2,7.5,8.5,12.7,6.9c15.8-4.7,29.6-20.8,41.8-48.7c12.7-29.4,17.1-55.6,13.5-78.8
		c-3.7-23.5-15.9-33.5-36.6-30.2c-4,0.7-8.4,1.9-13,3.7C139.3,113.6,138.7,113.6,137.7,113.6z"/>
	<path d="M407.6,256.8c0.3,3.7,0.1,7.6-0.4,11.6c-0.7,6.5-3.8,11.2-9.5,14.4c-5.7,3.1-12,4.5-18.8,4.1c-6.8-0.3-13.3-0.9-19.5-1.9
		c-0.7,0-1.8-0.1-3.5-0.4c-1.7-0.3-2.9-0.6-3.5-0.7c-0.7-0.1-1.6-0.3-2.8-0.7c-1.2-0.3-2.1-0.7-2.8-1.1c-0.7-0.4-1.2-1-1.9-1.7
		s-1.1-1.2-1.3-1.9c-0.3-0.7-0.4-1.6-0.4-2.8c-0.7-13-4.9-19.8-13-20.4c-9.2-0.7-18,7.1-26.4,23.2c-2.1,4.3-4.1,9-6,13.9h-0.4
		c-3.1,16-6,32-8.8,47.8c-0.7,3.5-2.1,10.7-4.7,22c-2.4,11.2-4,18.8-4.7,22.5c-1.9,6.8-10.8,11.7-26.8,14.8
		c-17.6,2.8-28.7,0.9-33.4-5.6c-2.1-2.8-2.3-6.3-0.4-10.7c2.4-11.1,5.6-27.1,9.2-47.8c1.6-8,6.2-31.4,13.9-70l7.9-39.9
		c1.6-6.8,10.5-11.7,26.8-14.8c17.3-2.8,28.4-0.9,33.4,5.6c2.1,2.8,2.3,6.3,0.4,10.7l-1.9,9.2c25.4-20.4,51.4-23.9,78.3-10.7
		C399.1,232,406.1,242.4,407.6,256.8z"/>
	<path d="M404.3,314.7c2.4-23.2,11.8-44.2,28.1-63s35.6-30,58.1-33.4c17-2.4,33.1-0.4,48.2,6c8,3.5,14.3,7.9,18.8,13.7
		c4.5,5.7,7.2,12,8.4,18.8c1.1,6.8,1.1,13.8,0,21c-1.1,7.2-3.1,14.9-6.2,22.9l-86.3,38.1c2.8,8,7.9,14.3,15.3,18.8
		c7.5,4.5,15.5,6.7,24.4,6.5c8.8-0.1,17.6-1.8,26.4-4.9s16.7-8.5,23.8-16.3c7.1-7.7,11.7-16.8,13.9-27.4h19.9
		c-1.9,12-6.6,23.8-14.1,35.2c-7.6,11.5-17,21.2-28.5,29.2s-23.6,14.5-36.6,19.3c-13,4.8-26.6,7-40.8,6.7c-14.3-0.3-27.2-3.6-39-9.7
		c-10.8-5.6-19.2-14-25.1-25.5C405.1,355.7,402.1,337,404.3,314.7z M472.9,304.2c-0.3,1.2-0.7,2.7-0.9,4.1
		c18.3-8.4,37.2-16.8,57-25.5c0-1.2,0-2.4,0-3.7c0.3-7.5-3.6-12.4-11.6-14.8c-11.1-3.7-21.3,0.1-30.6,11.6
		C480.9,283,476.2,292.4,472.9,304.2z"/>
	<path d="M721.2,223.4c7.5,1.9,14,4.9,19.9,9.2c5.9,4.3,10.6,9.6,14.1,15.8c3.6,6.2,6,13.1,7.5,20.8c1.3,7.7,1.4,15.8,0.2,24.1
		c-2.1,13.6-6.6,27.6-13.3,42c-6.7,14.4-15,26.8-25.3,37.3c-11.1,11.7-26.7,20-46.8,24.8c-20,4.8-38.8,4.6-56.1-0.7
		c-9.2,45.8-16.5,81.9-21.8,108.5c-1.9,6.8-10.8,11.7-26.8,14.8c-17.6,2.8-28.7,0.9-33.4-5.6c-2.1-2.8-2.3-6.3-0.4-10.7
		c5.2-23.8,11.2-52.3,17.8-85.7c6.7-33.4,13.6-68.7,20.8-106.1s12.9-66.1,16.9-86.2c1.6-6.8,10.5-11.7,26.8-14.8
		c17.6-2.8,28.7-0.9,33.4,5.6c2.1,2.8,2.3,6.3,0.4,10.7l-0.9,5.6C678.2,221,700.5,217.9,721.2,223.4z M682.9,346.8
		c8.5-10.5,14.5-23.1,17.8-37.8c3.5-14.7,3.2-27.3-0.4-37.8c-3.7-10.5-9.9-15.8-18.5-15.8c-7.5,0-15,4-22.7,12s-13.8,18-18,30.2
		l-5.6,28.3c-0.3,6.8,0.3,13,2.1,18.6c1.7,5.6,4.2,9.9,7.7,13.3c3.5,3.2,7.5,4.9,12,4.9C665.9,362.5,674.5,357.3,682.9,346.8z"/>
	<path d="M921.2,223.4c7.5,1.9,14,4.9,19.9,9.2c5.9,4.3,10.6,9.6,14.1,15.8c3.6,6.2,6,13.1,7.5,20.8c1.3,7.7,1.4,15.8,0.2,24.1
		c-2.1,13.6-6.6,27.6-13.3,42c-6.7,14.4-15,26.8-25.3,37.3c-11.1,11.7-26.7,20-46.8,24.8c-20,4.8-38.8,4.6-56.1-0.7
		c-9.2,45.8-16.5,81.9-21.8,108.5c-1.9,6.8-10.8,11.7-26.8,14.8c-17.6,2.8-28.7,0.9-33.4-5.6c-2.1-2.8-2.3-6.3-0.4-10.7
		c5.2-23.8,11.2-52.3,17.8-85.7c6.7-33.4,13.6-68.7,20.8-106.1c7.2-37.4,12.9-66.1,16.9-86.2c1.6-6.8,10.5-11.7,26.8-14.8
		c17.6-2.8,28.7-0.9,33.4,5.6c2.1,2.8,2.3,6.3,0.4,10.7l-0.9,5.6C878.4,221,900.5,217.9,921.2,223.4z M883,346.8
		c8.5-10.5,14.5-23.1,17.8-37.8c3.5-14.7,3.2-27.3-0.4-37.8c-3.7-10.5-9.9-15.8-18.5-15.8c-7.5,0-15,4-22.7,12s-13.8,18-18,30.2
		l-5.6,28.3c-0.3,6.8,0.3,13,2.1,18.6c1.7,5.6,4.2,9.9,7.7,13.3c3.5,3.2,7.5,4.9,12,4.9C866,362.5,874.6,357.3,883,346.8z"/>
	<path d="M1174.1,318.5h20.4c-6.2,21-15.8,40.1-29,57.2c-13.1,17.1-28.6,29.3-46.5,36.4c-1.2,4.7-2.7,10.8-4.1,18.6
		c-1.6,7.7-2.9,14.5-3.9,20.2c-1.1,5.7-2.6,12.1-4.5,19.3c-1.9,7.1-3.6,13.3-5.1,18.6c-13,38.3-31.8,60.9-56.6,67.7
		c-18.8,5.2-35.7,0.7-50.6-13.9c-15.1-15.5-20.8-34.2-17.1-56.1c5.2-31.2,29.1-57.5,71.4-78.8c4.7-2.1,9.2-4.3,13.9-6.5
		c3.3-11.5,5.7-20.7,6.9-27.8l-0.9,0.9c-27.2,23.2-53.3,28.1-78.3,14.8c-11.7-6.1-18.4-17.5-19.9-33.9c-0.9-8.9-0.4-16.7,1.3-23.2
		c4-20,8.1-40.6,12.5-61.7c0.9-3.5,2.6-10.7,4.9-22c2.3-11.2,3.8-18.8,4.5-22.5c1.9-6.8,10.9-11.7,27.4-14.8
		c17.3-2.8,28.4-0.9,33.4,5.6c2.1,2.8,2.1,6.3,0,10.7c-4.3,20.4-11.1,53.3-20.4,98.8c-1.6,16.7,2,26.3,10.7,28.7
		c8.7,2.1,17.3-3.9,25.9-18c3.3-5.2,6.3-11.5,8.8-18.6c3.1-16,6.1-32,9.2-47.8c0.7-3.5,2.1-10.7,4.5-22c2.3-11.2,3.9-18.8,4.9-22.5
		c1.6-6.8,10.5-11.7,26.8-14.8c17.3-2.8,28.4-0.9,33.4,5.6c2.1,2.8,2.3,6.3,0.4,10.7c-4,17.9-9,43.8-15,77.4s-9.9,55.5-11.8,65.4
		c6.5-1.9,13.9-7,22.3-15.5C1162.1,345.9,1168.9,334,1174.1,318.5z M1013.8,526.7c2.8,0.9,5.5,0.3,8.1-1.7c2.7-2,5.5-5.7,8.4-11.1
		c2.9-5.5,6.1-13.3,9.7-23.4c3.6-10.2,7.2-22.6,10.9-37.1c-9.6,4.7-18.3,10.4-25.9,17.1c-7.7,6.8-13,13.1-15.8,19
		c-3.7,8.9-4.9,17-3.7,24.1C1006.7,520.8,1009.4,525.1,1013.8,526.7z"/>
</g>
<g>
	<path d="M949.2,145.8c0,20.4-12.8,33.1-31.1,33.1c-8.1,0-14.2-2.4-18.6-6.1c-2,1.1-4.2,2.2-6.9,3.2c-8.7,3.2-16,3.4-16-4.2
		c0-1.6,0-67.3,0-67.3c0-6.3-4.5-7.9-4.5-12.4c0-0.3,0-0.1,0-0.3c0-4.9,5.3-8.3,15.5-12.2c8.6-3.2,15.9-3.4,15.9,4.2
		c0,0.7,0,33.1,0,33.1c3.6-2.5,8.1-4.1,13.8-4.1C935.4,112.7,949.2,125.5,949.2,145.8z M921.4,145.8c0-14.2-3.7-21.4-9.4-21.4
		c-6.5,0-9.1,9.7-9.1,21.4c0,11.9,2.6,21.6,9.1,21.6C917.7,167.3,921.4,160.1,921.4,145.8z"/>
	<path d="M1012.8,157.5c5.6,3.6-3.3,22-25.4,21.3c-18-0.4-33.6-11.1-33.6-33.1c0-18.4,13.5-32.8,31.9-33.1
		c18.1-0.3,28.8,11.5,29.9,23.3c0.8,9.4-2,11.6-8.1,11.6h-27.9c2.5,13.2,17.1,14.4,25.9,11.1
		C1008.7,157.4,1010.8,156.2,1012.8,157.5z M978.4,138.1c0,0,9.4,0,12,0c2.5,0,4-0.9,4.2-3.3c0.5-4.4,0.5-12.4-7-12.4
		C981.8,122.4,978.4,128.1,978.4,138.1z"/>
	<path d="M1050.8,178.8c-14,0-23.4-9.9-23.4-25.3v-28.2c-1.3,0-2.2,0-2.8,0c-3.2,0-6.1-1.9-6.1-5.6c0-5,8.6-15.3,19.8-21.8
		c8.1-4.6,15.9-4.4,15.9,3.2c0,2.9,0,9.3,0,13.6c4.8,0,8.7,0,9.8,0c4.1,0,6.1,2.2,6.1,5.3c0,3-2,5.3-6.1,5.3c-1.1,0-5,0-9.8,0v25
		c0,10.1,5.4,9.8,9.5,8.3c3.2-1.3,5.4-2.2,7.3-1.2C1076.7,160.3,1069.3,178.8,1050.8,178.8z"/>
	<path d="M1148.2,166.3c0,0.3,0,0.1,0,0.3c0,4.9-3.4,9.7-13,11.8c-7.9,1.7-14.7-0.3-16.4-6.9c-0.3-0.8-0.4-1.6-0.5-2.4
		c-2.8,5.3-8.2,9.8-17.3,9.8c-11.1,0-22.9-4.8-23.3-17.3c-0.7-16.7,12-21.8,26.2-21.8c4,0,7.7,0,10.7,0v-5.4
		c0-9.8-0.8-13.1-4.2-13.6c-9.3-1.2-3,20-20.5,16.7c-6-1.1-8.3-9.4-3.7-15.9c4.9-6.7,15.9-8.7,24.6-8.7c12.4,0,30.8,5.8,30.8,24.7
		v16.4C1141.6,160.2,1148.2,161.8,1148.2,166.3z M1114.6,154.5V147c-0.8,0-1.7,0-2.6,0c-6.1,0-9.1,4.4-9.1,11.5
		c0,6.1,2.9,7.8,6.1,7.8C1112.5,166.3,1114.6,163.1,1114.6,154.5z"/>
</g>
</svg>
