<?xml version="1.0" encoding="utf-8"?>
<!-- Generator: Adobe Illustrator 23.1.0, SVG Export Plug-In . SVG Version: 6.00 Build 0)  -->
<svg version="1.1" id="Calque_1" xmlns="http://www.w3.org/2000/svg" xmlns:xlink="http://www.w3.org/1999/xlink" x="0px" y="0px"
	 viewBox="0 0 1200 600" style="enable-background:new 0 0 1200 600;" xml:space="preserve">
<g>
	<path d="M143.5,99.1c0.4,0.2-1.1-0.8,15.3-7s32.6-9.8,48.7-10.6c16.1-0.8,31,0.2,44.7,3.1s25.4,8.9,35,17.9s15.7,20.5,18.5,34.3
		c1.9,11.1,1.7,25.5-0.8,43.1s-6.7,35-12.7,52.2s-14.1,32.7-24.4,46.6s-21.2,22.5-32.9,25.8c-4.7,1.4-10,2.2-15.8,2.3
		c-5.8,0.1-12.1-0.5-18.7-1.9c-6.7-1.4-12.8-4.5-18.3-9.4c-5.6-4.9-9.4-11.2-11.7-18.9c-7.5,37.2-14.3,70.5-20.4,99.9
		c-0.6,3.3-4.9,5.9-12.9,7.7c-8.1,1.8-16.9,2.4-26.6,1.9c-5.6-0.3-9.9-0.7-13.1-1.2c-3.2-0.6-6-1.9-8.3-4.2
		c-2.4-2.2-3.1-5.4-2.3-9.6c3.6-18.3,10.4-51.6,20.4-99.9l28.3-136.9l0.9-3.5 M201.2,127.7c-1.4,6.9-3.1,15.6-5.2,26
		c-2.1,10.4-4,19.8-5.6,28.1c-1.7,8.3-3.5,16.6-5.4,25c-2.2,11.1-3.3,21.3-3.1,30.6c0.1,9.3,1.7,16.7,4.6,22.3
		c2.9,5.6,6.7,7.6,11.4,6.2c14.2-4.2,26.6-18.7,37.5-43.7c11.4-26.4,15.4-49.9,12.1-70.8c-3.3-21.1-14.3-30.1-32.9-27.1
		c-3.6,0.6-7.5,1.7-11.7,3.3C202.6,127.7,202.1,127.7,201.2,127.7z"/>
	<path d="M443.6,256.3c0.3,3.3,0.1,6.8-0.4,10.4c-0.6,5.8-3.4,10.1-8.5,12.9s-10.8,4-16.9,3.7s-11.9-0.8-17.5-1.7
		c-0.6,0-1.6-0.1-3.1-0.4s-2.6-0.5-3.1-0.6c-0.6-0.1-1.4-0.3-2.5-0.6c-1.1-0.3-1.9-0.6-2.5-1s-1.1-0.9-1.7-1.5s-1-1.1-1.2-1.7
		c-0.3-0.6-0.4-1.4-0.4-2.5c-0.6-11.7-4.4-17.8-11.7-18.3c-8.3-0.6-16.2,6.4-23.7,20.8c-1.9,3.9-3.7,8.1-5.4,12.5h-0.4
		c-2.8,14.4-5.4,28.7-7.9,42.9c-0.6,3.1-1.9,9.6-4.2,19.8c-2.2,10.1-3.6,16.9-4.2,20.2c-1.7,6.1-9.7,10.5-24.1,13.3
		c-15.8,2.5-25.8,0.8-30-5c-1.9-2.5-2.1-5.7-0.4-9.6c2.2-10,5-24.3,8.3-42.9c1.4-7.2,5.6-28.2,12.5-62.9l7.1-35.8
		c1.4-6.1,9.4-10.5,24.1-13.3c15.5-2.5,25.5-0.8,30,5c1.9,2.5,2.1,5.7,0.4,9.6l-1.7,8.3c22.8-18.3,46.2-21.5,70.3-9.6
		C435.9,234,442.2,243.3,443.6,256.3z"/>
	<path d="M440.6,308.3c2.2-20.8,10.6-39.7,25.2-56.6s32-26.9,52.2-30c15.3-2.2,29.7-0.4,43.3,5.4c7.2,3.1,12.8,7.1,16.9,12.3
		c4,5.1,6.5,10.8,7.5,16.9s1,12.4,0,18.9s-2.8,13.4-5.6,20.6L502.6,330c2.5,7.2,7.1,12.8,13.7,16.9c6.7,4,13.9,6,21.9,5.8
		c7.9-0.1,15.8-1.6,23.7-4.4s15-7.6,21.4-14.6c6.4-6.9,10.5-15.1,12.5-24.6h17.9c-1.7,10.8-5.9,21.4-12.7,31.6
		c-6.8,10.3-15.3,19-25.6,26.2s-21.2,13-32.9,17.3s-23.9,6.3-36.6,6c-12.8-0.3-24.4-3.2-35-8.7c-9.7-5-17.2-12.6-22.5-22.9
		C441.3,345.1,438.6,328.3,440.6,308.3z M502.2,298.8c-0.3,1.1-0.6,2.4-0.8,3.7c16.4-7.5,33.4-15.1,51.2-22.9c0-1.1,0-2.2,0-3.3
		c0.3-6.7-3.2-11.1-10.4-13.3c-10-3.3-19.1,0.1-27.5,10.4C509.4,279.8,505.2,288.2,502.2,298.8z"/>
	<path d="M725.2,226.3c6.7,1.7,12.6,4.4,17.9,8.3c5.3,3.9,9.5,8.6,12.7,14.2c3.2,5.6,5.4,11.8,6.7,18.7c1.2,6.9,1.3,14.2,0.2,21.6
		c-1.9,12.2-5.9,24.8-11.9,37.7c-6,12.9-13.5,24.1-22.7,33.5c-10,10.5-24,18-42,22.3s-34.8,4.1-50.4-0.6
		c-8.3,41.1-14.8,73.5-19.6,97.4c-1.7,6.1-9.7,10.5-24.1,13.3c-15.8,2.5-25.8,0.8-30-5c-1.9-2.5-2.1-5.7-0.4-9.6
		c4.7-21.4,10.1-47,16-77c6-30,12.2-61.7,18.7-95.3s11.6-59.4,15.2-77.4c1.4-6.1,9.4-10.5,24.1-13.3c15.8-2.5,25.8-0.8,30,5
		c1.9,2.5,2.1,5.7,0.4,9.6l-0.8,5C686.6,224.1,706.6,221.3,725.2,226.3z M690.8,337.1c7.6-9.4,13-20.7,16-33.9
		c3.1-13.2,2.9-24.5-0.4-33.9c-3.3-9.4-8.9-14.2-16.6-14.2c-6.7,0-13.5,3.6-20.4,10.8S657,282.1,653.2,293l-5,25.4
		c-0.3,6.1,0.3,11.7,1.9,16.7c1.5,5,3.8,8.9,6.9,11.9c3.1,2.9,6.7,4.4,10.8,4.4C675.5,351.2,683.2,346.5,690.8,337.1z"/>
	<path d="M904.8,226.3c6.7,1.7,12.6,4.4,17.9,8.3c5.3,3.9,9.5,8.6,12.7,14.2c3.2,5.6,5.4,11.8,6.7,18.7c1.2,6.9,1.3,14.2,0.2,21.6
		c-1.9,12.2-5.9,24.8-11.9,37.7c-6,12.9-13.5,24.1-22.7,33.5c-10,10.5-24,18-42,22.3s-34.8,4.1-50.4-0.6
		c-8.3,41.1-14.8,73.5-19.6,97.4c-1.7,6.1-9.7,10.5-24.1,13.3c-15.8,2.5-25.8,0.8-30-5c-1.9-2.5-2.1-5.7-0.4-9.6
		c4.7-21.4,10.1-47,16-77c6-30,12.2-61.7,18.7-95.3s11.6-59.4,15.2-77.4c1.4-6.1,9.4-10.5,24.1-13.3c15.8-2.5,25.8-0.8,30,5
		c1.9,2.5,2.1,5.7,0.4,9.6l-0.8,5C866.3,224.1,886.2,221.3,904.8,226.3z M870.5,337.1c7.6-9.4,13-20.7,16-33.9
		c3.1-13.2,2.9-24.5-0.4-33.9c-3.3-9.4-8.9-14.2-16.6-14.2c-6.7,0-13.5,3.6-20.4,10.8s-12.4,16.2-16.2,27.1l-5,25.4
		c-0.3,6.1,0.3,11.7,1.9,16.7c1.5,5,3.8,8.9,6.9,11.9c3.1,2.9,6.7,4.4,10.8,4.4C855.2,351.2,862.9,346.5,870.5,337.1z"/>
	<path d="M1131.9,311.7h18.3c-5.6,18.9-14.2,36-26,51.4s-25.7,26.3-41.8,32.7c-1.1,4.2-2.4,9.7-3.7,16.7c-1.4,6.9-2.6,13-3.5,18.1
		c-1,5.1-2.3,10.9-4,17.3s-3.2,11.9-4.6,16.7c-11.7,34.4-28.6,54.7-50.8,60.8c-16.9,4.7-32.1,0.6-45.4-12.5
		c-13.6-13.9-18.7-30.7-15.4-50.4c4.7-28,26.1-51.6,64.1-70.8c4.2-1.9,8.3-3.9,12.5-5.8c3-10.3,5.1-18.6,6.2-25l-0.8,0.8
		c-24.4,20.8-47.9,25.2-70.3,13.3c-10.5-5.5-16.5-15.7-17.9-30.4c-0.8-8-0.4-15,1.2-20.8c3.6-18,7.3-36.5,11.2-55.4
		c0.8-3.1,2.3-9.6,4.4-19.8c2.1-10.1,3.4-16.9,4-20.2c1.7-6.1,9.8-10.5,24.6-13.3c15.5-2.5,25.5-0.8,30,5c1.9,2.5,1.9,5.7,0,9.6
		c-3.9,18.3-10,47.9-18.3,88.7c-1.4,15,1.8,23.6,9.6,25.8c7.8,1.9,15.5-3.5,23.3-16.2c3-4.7,5.7-10.3,7.9-16.7
		c2.8-14.4,5.5-28.7,8.3-42.9c0.6-3.1,1.9-9.6,4-19.8c2.1-10.1,3.5-16.9,4.4-20.2c1.4-6.1,9.4-10.5,24.1-13.3
		c15.5-2.5,25.5-0.8,30,5c1.9,2.5,2.1,5.7,0.4,9.6c-3.6,16.1-8.1,39.3-13.5,69.5s-8.9,49.8-10.6,58.7c5.8-1.7,12.5-6.3,20-13.9
		C1121.1,336.3,1127.2,325.6,1131.9,311.7z M987.9,498.6c2.5,0.8,4.9,0.3,7.3-1.5c2.4-1.8,4.9-5.1,7.5-10s5.5-11.9,8.7-21
		c3.2-9.2,6.5-20.3,9.8-33.3c-8.6,4.2-16.4,9.3-23.3,15.4c-6.9,6.1-11.7,11.8-14.2,17.1c-3.3,8-4.4,15.3-3.3,21.6
		C981.5,493.3,984,497.2,987.9,498.6z"/>
</g>
</svg>
