<svg id="image" xmlns="http://www.w3.org/2000/svg" width="46.36" height="46.36" viewBox="0 0 46.36 46.36">
  <g id="Groupe_981" data-name="Groupe 981">
    <g id="Groupe_980" data-name="Groupe 980">
      <path id="Tracé_1661" data-name="Tracé 1661" d="M130.77,96H98.9A2.9,2.9,0,0,0,96,98.9V130.77a2.9,2.9,0,0,0,2.9,2.9H130.77a2.9,2.9,0,0,0,2.9-2.9V98.9A2.9,2.9,0,0,0,130.77,96Zm0,34.77H98.9V98.9H130.77Z" transform="translate(-87.307 -87.307)" fill="#b7cff4"/>
      <path id="Tracé_1662" data-name="Tracé 1662" d="M2.9,2.9H34.77V5.8h2.9V2.9A2.9,2.9,0,0,0,34.77,0H2.9A2.9,2.9,0,0,0,0,2.9V34.77a2.9,2.9,0,0,0,2.9,2.9H5.8v-2.9H2.9Z" fill="#b7cff4"/>
      <path id="Tracé_1663" data-name="Tracé 1663" d="M161.653,283.724h23.18a1.449,1.449,0,0,0,1.029-2.477l-5.8-5.8a1.449,1.449,0,0,0-2.043,0l-1.883,1.883-4.766-4.766a1.449,1.449,0,0,0-2.043,0l-8.693,8.693a1.449,1.449,0,0,0,1.014,2.463Z" transform="translate(-145.717 -247.505)" fill="#b7cff4"/>
      <circle id="Ellipse_124" data-name="Ellipse 124" cx="2.5" cy="2.5" r="2.5" transform="translate(32.18 19.18)" fill="#b7cff4"/>
    </g>
  </g>
</svg>
